<svg xmlns="http://www.w3.org/2000/svg" width="50" height="50">
  <path fill="#F4F1EC" d="M25 0C11.2 0 0 11.2 0 25s11.2 25 25 25 25-11.2 25-25S38.8 0 25 0zm12.44 19.4l.02.78c0 8.14-6.2 17.52-17.52 17.52-3.47 0-6.7-1.02-9.43-2.77.5.06 1 .1 1.5.1 2.9 0 5.56-1 7.66-2.65-2.7-.05-4.96-1.83-5.75-4.27.38.1.76.16 1.16.16.56 0 1.1-.08 1.62-.22-2.8-.56-4.93-3.04-4.93-6.02v-.07c.83.45 1.77.73 2.78.76-1.64-1.1-2.72-3-2.72-5.12 0-1.13.3-2.18.84-3.1 3.04 3.73 7.58 6.18 12.7 6.44-.1-.44-.17-.9-.17-1.4 0-3.4 2.76-6.15 6.16-6.15 1.76 0 3.36.75 4.5 1.95 1.4-.3 2.7-.8 3.9-1.5-.47 1.43-1.44 2.64-2.7 3.4 1.23-.15 2.42-.48 3.52-.97-.8 1.25-1.86 2.33-3.06 3.2z"/>
</svg>