<svg xmlns="http://www.w3.org/2000/svg" viewBox="0 0 50 50">
  <path fill="#F4F1EC" d="M25 0C11.2 0 0 11.2 0 25s11.2 25 25 25 25-11.2 25-25S38.8 0 25 0zm12.68 27.7c1.17 1.14 2.4 2.2 3.45 3.47.46.55.9 1.13 1.23 1.77.47.93.04 1.94-.78 2h-5.12c-1.32.1-2.38-.43-3.27-1.34-.7-.72-1.4-1.5-2.08-2.23-.28-.3-.58-.6-.93-.82-.7-.46-1.3-.32-1.7.4-.4.75-.5 1.57-.54 2.4-.06 1.2-.42 1.52-1.63 1.58-2.6.12-5.05-.27-7.33-1.58-2-1.15-3.55-2.77-4.9-4.6-2.67-3.6-4.7-7.54-6.5-11.6-.4-.9-.13-1.4.9-1.4 1.65-.04 3.32-.03 5 0 .7 0 1.13.4 1.4 1.04.9 2.2 2 4.3 3.4 6.25.36.53.73 1.05 1.27 1.42.6.4 1.05.26 1.33-.4.2-.43.25-.88.3-1.33.12-1.54.14-3.1-.1-4.63-.13-.95-.67-1.57-1.63-1.75-.5-.1-.42-.3-.18-.57.4-.48.8-.78 1.54-.78h5.78c.92.18 1.12.6 1.25 1.5V23c0 .34.17 1.4.8 1.63.5.17.86-.24 1.16-.56 1.4-1.48 2.38-3.2 3.26-5 .4-.8.72-1.63 1.05-2.45.23-.6.6-.9 1.3-.9h5.57c.16 0 .33 0 .5.04.93.16 1.2.56.9 1.48-.46 1.44-1.35 2.64-2.2 3.84-.95 1.3-1.94 2.53-2.86 3.82-.85 1.18-.78 1.78.27 2.8z"/>
</svg>