<svg xmlns="http://www.w3.org/2000/svg" viewBox="0 0 263 74">
  <g fill="none" fill-rule="evenodd">
    <g fill="#CD483F">
      <path d="M30.93 21.8c.24.198.528.294.822.382.047.014.11.008.164.014 0-.137.007-.15-.06-.24-.097-.115-.193-.238-.302-.335-.137-.12-.294-.21-.438-.33-.288-.22-.63-.22-.992-.24.02.04.02.06.034.07.26.24.513.47.773.69m1.99-1.06c.21.2.44.37.65.56.22.2.45.35.73.41.06.02.12.05.18.07.06.02.13.03.2.05.01-.05.02-.07.02-.08-.01-.03-.01-.05-.02-.07-.14-.25-.31-.48-.57-.64-.24-.15-.48-.32-.72-.47-.4-.24-.8-.47-1.21-.7-.03-.01-.06-.01-.11-.02.03.05.04.07.06.09.28.28.54.56.82.83m-18.12 7.4c.01.04.02.07.03.09.01.03.02.05.03.07l.03.05c.02.02.04.03.07.03.05.01.09-.03.09-.08v-.01s.01-.02 0-.05v-.17l.01-.04c0-.03.01-.06.01-.09.01-.03.01-.07.02-.1l.03-.09c.01-.03.03-.06.05-.09.02-.03.04-.06.05-.08l.03-.03.03-.03.03-.03c.01-.01.02-.01.03-.02.02-.02.04-.03.05-.04.01 0 .02-.01.03-.01l.03-.01.04-.03c.03-.02.05-.05.04-.09-.01-.04-.06-.07-.1-.06l-.05.02h-.03l-.04.02c-.03.01-.06.03-.09.04l-.05.03c-.01.01-.03.02-.04.04-.03.02-.06.05-.09.08-.03.04-.06.07-.09.11-.03.03-.05.07-.07.11-.02.05-.04.09-.05.13l-.03.13c0 .04-.01.08 0 .12 0 .02.01.04.01.06l.01.06m8.1-.04l2.42.41-.48 2.85-2.43-.41.48-2.85zm2.89 2.45l2.21.37-.16.94-2.21-.37.16-.93zm.32-1.9l2.21.37-.16.94-2.21-.37.16-.93zm-4.63 2.83l2.05.35c.04 0 .08 0 .12.01v.01l1.76.3c.01 0 .03 0 .04.01l.03.01h.01c.85.17 1.43.98 1.28 1.84l-.47 2.73c0 .01-.01.01-.01.01l-.14.84c-.07.44.23.76.67.84.45.08.86-.76.94-.76h.01l1.62-9.54-7.2-1.2-.75 4.52z"/>
      <path d="M25.334 32.932c-.444-.075-.863.22-.937.66l-.133.71-.62 3.675 1.833.308c-.1-.26-.14-.544-.09-.837L26 33.863c.075-.44-.225-.857-.668-.93m-9.61-5.673h.005c.01 0 .02-.002.03-.006.03-.01.05-.04.053-.075 0-.05-.035-.08-.08-.09h-.008c-.046 0-.08.04-.08.08-.002.04.036.08.08.08M38.007 16.4c.582.45 1.23.67 1.954.67.14-.005.28-.01.48-.04.18-.034.34-.063.51-.125.33-.113.65-.274.93-.503.56-.444 1.04-1.155 1.06-1.987-.67.202-1.16.237-1.64.27l-.68.032-.69.01c-.39-.003-.86-.006-1.32-.037-.48-.035-.96-.07-1.63-.273.02.83.5 1.537 1.06 1.982m-14.6 16.21c-.39-.01-.73.26-.81.64l-.05.28 1.01.17.05-.26c.05-.29.18-.55.36-.76l-.54-.09zm-12.85-2.28l.02.01.03.01.04.01.04.01c.01 0 .03.01.04.01l.04.01c.02.01.03.01.05.01l.05.01c.03.01.07.01.1.01h.11l.06-.01.06-.01.03-.01c.01 0 .02-.01.02-.01l.05-.02c.03-.01.06-.02.09-.04l.04-.02.03-.03c.03-.01.04-.03.06-.05l.02-.02.02-.02.02-.03.01-.01c.01-.02.01-.03.01-.04-.01-.04-.04-.06-.07-.05h-.01l-.03.01-.02.01-.03.01-.06.02-.03.02-.04.01c-.02.01-.05.01-.07.03-.01.01-.02.01-.04.01l-.02.01h-.02l-.08.02-.04.01H11c-.015 0-.03.01-.04 0h-.087l-.04-.01c-.027 0-.05-.01-.074-.01l-.04-.01h-.02l-.03-.01h-.03l-.05-.02c-.02-.01-.05 0-.06.02-.02.02-.01.06.02.08l.03.03m1.34 1.36l-.05.01h-.03c-.01 0-.02.01-.04.01l-.07.04-.04.02-.04.03c-.03.02-.05.04-.08.07-.02.03-.05.05-.07.09-.02.03-.04.06-.06.1-.01.04-.03.07-.04.11-.01.04-.01.08-.02.11v.11c0 .02.01.03.01.05l.01.04c.01.03.01.05.02.07l.03.05.03.042.06.03c.04 0 .07-.03.07-.07v-.23c0-.02 0-.05.01-.074 0-.02 0-.05.01-.08.01-.02.02-.05.03-.08.01-.02.02-.05.04-.075.01-.027.03-.05.04-.07l.03-.03.03-.03.02-.03.03-.02.05-.033.02-.02.02-.01.04-.03c.03-.02.04-.05.03-.08-.01-.04-.05-.06-.09-.05m.99-6.47l.02.03.03.04.04.046.04.06.03.06.04.06c.01.02.03.04.03.06l.02.06.02.06.02.06v.09l.01.036c0 .02.02.04.04.04.02.01.05-.01.05-.04l.01-.03v-.02s0-.01.005-.02v-.05c0-.02 0-.04-.007-.07l-.01-.07c0-.024-.01-.05-.02-.08l-.03-.08c-.01-.03-.02-.053-.04-.08-.01-.024-.03-.05-.04-.07l-.02-.033-.024-.03-.03-.02-.026-.02-.05-.034-.04-.02-.04-.013c-.01-.006-.02-.006-.03 0-.03.01-.04.04-.03.065v.01l.02.03m-2.69 4.88c.02.02.04.03.07.03.02 0 .04-.01.06-.03.037-.03.04-.09.007-.13l-.01-.01c-.03-.03-.09-.04-.12-.002-.04.03-.04.09-.01.13m1.98 1.49h-.01c-.04 0-.07.03-.07.07 0 .04.03.07.07.07.01 0 .02 0 .026-.01.02-.01.04-.03.04-.06 0-.035-.03-.07-.07-.07m.74-1.9h-.02c-.01 0-.02 0-.036.006h-.01l-.02.01-.03.02-.04.02-.04.03-.03.036c-.01.014-.02.027-.02.04 0 .016-.01.03-.01.04l-.004.02v.12c0 .01.01.02.02.02.01.01.03 0 .04-.01v-.033l.01-.02v-.01s.003 0 .004-.01c0-.01.01-.02.01-.03.003 0 .01-.01.02-.02 0-.01.01-.02.02-.03l.02-.03.02-.02.015-.01.01-.008.01-.01h.01l.02-.01h.02l.02-.01c.01 0 .02-.01.02-.03.003-.01-.01-.03-.02-.03h-.02m.11.06h.01c.01 0 .02 0 .024-.02.01-.01 0-.03-.01-.03v.01c-.015 0-.03 0-.036.02-.004.013 0 .03.02.034h.01zm8.32 10.89l1 .17.16-.97-1-.17-.16.97zm45.3-28.46c.23.15.5.23.77.23.5 0 .96-.25 1.23-.68.21-.33.27-.71.19-1.09-.09-.37-.32-.7-.65-.9-.23-.14-.49-.22-.77-.22-.5 0-.96.26-1.23.68-.2.33-.27.72-.18 1.09.08.38.31.7.64.91m-5.42-1.26c.23.15.5.23.77.23.5 0 .96-.26 1.23-.68.426-.68.22-1.58-.46-2-.23-.15-.493-.227-.77-.227-.5 0-.96.255-1.23.68-.2.33-.27.72-.18 1.09.08.38.31.7.64.906M22.2 35.33l.99.17.17-1.025-.99-.165-.17 1.02zm44.02-13.3c.44-.354 1.02-.94 1.68-1.69 1.18-1.344 2.56-3.17 3.89-5.13.81-1.19 1.47-2.243 2.1-3.31-.26-.09-.51-.214-.75-.38-.15-.1-.28-.207-.4-.315-.74.96-1.52 2.03-2.25 3.11-1.34 1.964-2.52 3.924-3.34 5.523-.46.89-.79 1.645-.96 2.194M50.47 44.9c-.28-.277-.725-.277-1.003 0s-.28.727 0 1.005l4.24 4.24c.14.14.32.21.5.21s.362-.07.5-.208c.275-.275.275-.725-.002-1.003l-4.24-4.24zm6.138-25.38c.232.148.5.225.772.225.503 0 .96-.254 1.23-.678.206-.328.272-.717.187-1.095-.09-.376-.32-.7-.64-.904-.24-.146-.5-.223-.78-.223-.504 0-.964.253-1.23.677-.207.328-.27.717-.188 1.094.08.378.31.7.64.906m-.13 21.335c-.61 0-1.18.237-1.61.666-.43.43-.67 1-.67 1.608 0 .61.24 1.18.66 1.61.43.43 1 .67 1.61.67.6 0 1.18-.23 1.6-.66.43-.43.66-1 .66-1.6s-.24-1.18-.67-1.6c-.43-.43-1-.66-1.61-.66m.42-26.76c.23.15.5.23.77.23.5 0 .96-.25 1.23-.68.43-.68.22-1.57-.46-2-.23-.15-.5-.22-.77-.22-.5 0-.96.26-1.23.68-.21.33-.28.72-.19 1.1.08.38.31.7.64.91m-46.74 10c.01.01.02.01.03.01.02 0 .04-.01.06-.03.02-.03.01-.07-.03-.09V24c-.03-.01-.07 0-.09.03-.02.035-.01.075.03.095zm11.5 14.78l1 .17.16-.99-1-.16-.17.99zm.46-2.76l-.17.99.99.17.17-.99-.99-.16zm-6.3-.06l.99.17.16-.99-.99-.16-.17.99zm.29-1.77l1 .17.17-1.02-1-.16-.18 1.03zm-.6 3.54l.99.17.17-.99-1-.17-.16.99zm-.3 1.75l1 .17.17-.96-1-.17-.16.97zm1.27-7.54l-.07.44 1 .17.18-1.05-.25-.04c-.37-.07-.71.14-.85.48M50.5 61.66c.27-.83-.19-1.72-1.02-1.99-.837-.27-1.73.19-2 1.02-.27.83.188 1.727 1.02 1.997.83.27 1.72-.184 1.993-1.015M5.27 42.37l.893 2.506 5.398-1.92-.89-2.5-5.39 1.92zm32.426 15.26l-.008.013-.004.01-.008.013c0 .01-.002.01-.004.01-.066.15-.235.57-.482 1.59-.03.12-.06.25-.09.39l1.535 1.24.354-.17c.93-.456 1.31-.71 1.44-.81 0 0 .01 0 .01-.005h.01l.01-.01.01-.01.09-.11-2.79-2.24-.09.11zm-22.63 9.394c-.168-.28-.454-.47-.805-.54-.08-.018-.17-.027-.26-.027-.28 0-.57.082-.84.24-.34.205-.59.513-.71.87-.1.34-.07.682.1.962.36.59 1.21.73 1.91.32.7-.42.98-1.24.62-1.83zm36.274-2.86c-.708-.52-1.698-.36-2.21.35-.514.7-.358 1.69.35 2.21.706.51 1.695.35 2.21-.35.512-.71.356-1.7-.35-2.21m1.324-4.08c.874 0 1.583-.71 1.583-1.59 0-.874-.71-1.58-1.583-1.58s-1.58.71-1.58 1.58c0 .875.707 1.583 1.58 1.583"/>
      <path d="M72.775 37.28s-.027.057-.09.07l-1.6.338c-.116.442-.24.9-.367 1.357l1.663-.35c.05-.01.04.045.04.045l-.23.896s-.02.058-.09.072l-1.65.347c-.23.873-.41 1.552-.47 1.76-.01.068-.06.066-.06.066l-.82.18s-.04.03-.02-.03c.04-.15.23-.85.47-1.77-.37.08-.77.17-1.16.24-.23.87-.41 1.57-.46 1.77-.02.07-.06.07-.06.07l-.84.18s-.03.02-.02-.03c.05-.15.24-.87.48-1.78l-1.51.32c-.06.01-.04-.04-.04-.04l.24-.91s.01-.04.06-.05l1.52-.32c.13-.44.26-.91.38-1.36l-1.57.34c-.06.01-.05-.04-.05-.04l.25-.91s.02-.05.07-.06c.13-.03.76-.16 1.58-.32.27-.98.46-1.7.46-1.7.02-.05.08-.08.08-.08l.81-.17s.05-.01.03.06c0 0-.18.72-.46 1.7l1.16-.25.48-1.7c.01-.05.06-.07.06-.07l.81-.17s.05-.02.04.05c0 0-.2.74-.46 1.72l1.6-.34c.05-.01.05.04.05.04l-.24.9zm1.145 24.25l.004.025-.435.37-.83-.974.55 3.03c.03.16 0 .33-.07.48-.02.04-.04.07-.06.11-.19.3-.56.55-1.02.63-.73.14-1.41-.19-1.51-.72-.1-.53.41-1.07 1.15-1.21.28-.05.56-.03.79.04l-.57-3.11c-.03-.18.1-.35.28-.38.08-.01.16 0 .22.03v.01c.07.04 1.43 1.62 1.46 1.69zm-4.608 5.436c.084.35.045.71-.095 1.05-.034.083-.072.162-.116.237-.38.678-1.16 1.25-2.15 1.486-1.58.38-3.09-.25-3.36-1.4s.78-2.4 2.37-2.78c.62-.15 1.22-.15 1.74-.02l-1.61-6.73c-.07-.38.19-.77.59-.87.17-.04.35-.02.5.05l.01-.01.02.02c.15.07 3.31 3.35 3.38 3.51l.01.06-.9.85-1.92-2.03 1.57 6.54zm-6.043-2.853l-.94.55c-.15.085-.33-.05-.29-.214l.25-1.04c.01-.07-.01-.14-.06-.19l-.85-.74c-.13-.12-.06-.32.11-.34l1.11-.11c.07-.01.13-.06.16-.12l.4-.97c.06-.16.29-.16.35 0l.4.97c.03.06.09.11.16.12l1.12.1c.16.01.23.22.11.33l-.84.74c-.06.05-.08.12-.06.19l.25 1.04c.04.16-.14.3-.29.21l-.93-.55c-.06-.04-.14-.04-.2 0zm-1.23 4.78c-.16.262-.51.343-.77.183-2.19-1.34-4.57-.444-5.38-.066-.04.02-.26.124-.29.135-.9.395-1.9.615-2.95.615-4.05 0-7.33-3.28-7.33-7.327 0-4.046 3.28-7.326 7.32-7.326 4.05 0 7.33 3.28 7.33 7.326 0 1.858-.69 3.554-1.83 4.845 1.12-.09 2.43.074 3.7.85.26.16.34.503.18.765zM45.07 55.34l-.26.325-3.678 4.562-.01-.007-.118.147s-.002 0-.003.003c-.04.044-.51.518-3.28 1.72-.02.006-.03.012-.05.02-.05.024-.11.048-.17.07l-.13.06-.13.055-.29.122c-.22.092-.72.304-.92.144-.2-.16-.09-.69-.05-.93l.06-.31.03-.13.03-.15.03-.17c.01-.02.01-.04.02-.06.62-3.11.98-3.63.98-3.63l.12-.19 3.68-4.51.27-.3c.29-.36.82-.4 1.18-.11l2.61 2.11c.36.29.42.83.13 1.19zm-9.51.96c-.548.328-1.258.15-1.586-.398-.33-.547-.15-1.258.397-1.586.55-.328 1.26-.15 1.59.398.33.548.15 1.258-.4 1.586zm-2.82 5.105c-1.312 0-2.375-1.063-2.375-2.374 0-1.31 1.063-2.37 2.375-2.37 1.31 0 2.374 1.06 2.374 2.38 0 1.31-1.063 2.38-2.374 2.38zm1.383 5.074s-.406-.46-1.25.39c-.84.84-.424 1.28-.424 1.28l-.7.7-1.4-1.4c.04-.12.14-.29.36-.5.35-.36.55-.38.6-.38h.02l.29.32.33-.34.73-.74.32-.32-.32-.32-3.97-3.97c-.05-.22-.17-.35-.17-.35l.71-.72 3.57 3.57 2.01 2.01-.74.73zm-4.853 2.13l-5.565-5.57.757-.76s.66.47 1.417-.28c.75-.76.21-1.37.21-1.37l.71-.72 5.58 5.58-.74.73s-.41-.45-1.25.39-.43 1.28-.43 1.28l-.7.7zm-2.01.3l-.842.74c-.055.05-.077.12-.06.19l.25 1.04c.04.16-.14.29-.286.21l-.932-.55c-.06-.04-.134-.04-.194 0l-.934.54c-.146.09-.322-.05-.284-.21l.254-1.04c.016-.07-.006-.14-.062-.19l-.843-.74c-.127-.11-.06-.32.11-.34l1.12-.11c.07-.01.13-.05.16-.12l.394-.97c.07-.16.3-.16.36 0l.4.97c.03.07.09.11.16.12l1.12.1c.17.01.24.22.12.33zm-5.116-1.52c.05.53-.33 1-.853 1.05-.52.05-.98-.33-1.03-.86-.05-.53.33-1 .85-1.06.26-.03.5.05.69.2l-.28-2.96s1.14.84 2.01-.02l.11 1.25s-.75.52-1.7.13l.22 2.24zm-3.997 3.69c-.72.22-1.477-.2-1.69-.93-.218-.73.19-1.5.91-1.72.352-.11.716-.06 1.02.1l-1.204-4.08s1.82.88 2.807-.57l.507 1.71s-.91.95-2.354.65l.912 3.09c.216.73-.192 1.5-.91 1.72zm-3.39-1.71c-.366.22-.766.32-1.15.32-.65 0-1.26-.3-1.594-.86-.26-.43-.313-.95-.148-1.46.16-.5.504-.93.975-1.21.47-.28 1.01-.39 1.523-.29.526.09.96.39 1.22.82.527.88.156 2.08-.83 2.67zM4.49 45.48l.515-.183-1.098-3.084c-.114-.313.052-.67.372-.78l6.55-2.334c.32-.12.67.05.78.37l1.1 3.08.51-.18 6.93 19.48-.37.13.17.48-1.06.38-.18-.49-5.88 2.09.17.48-1.07.38-.17-.48-.37.13-6.94-19.48zm2.724 18.368L1.924 49c-.43-1.207.148-2.516 1.287-3.043l6.93 19.43c-1.21.314-2.49-.335-2.92-1.54zm-2.02-27.164c.486.046.925.2 1.274.426l.513-5.313c.05-.296.34-.513.65-.483.14.013.26.073.35.16l.01-.004.01.02c.09.094 1.57 3.278 1.58 3.412v.046l-.87.398-.89-1.962-.5 5.163c-.02.276-.14.53-.33.742-.04.05-.09.1-.14.14-.45.4-1.16.62-1.94.54-1.25-.12-2.19-.96-2.1-1.87.09-.91 1.17-1.55 2.42-1.43zm1.385-11.07c.12 0 .22.1.22.22 0 .124-.1.223-.22.223-.13 0-.23-.1-.23-.222s.1-.22.22-.22zm.5.092c.01 0 .02.356.04.35.43-.265.24-.338.24-.628-.01-.06 0-.03.01-.093.05-.24.29-.365.52-.407.42-.1.69-.228.69-.57v.007c0-.592.78-.94 1.4-.79.18.044.33.13.46.244.01 0 .01.01.02.02 0 0 .01.01.01.02.52.47.46.45 1.64.39.04-.01.08-.39.12-.39.11 0 .22.39.33.42.72.17 1.15 1.09.97 1.81-.06.25-.38.64-.38.81v.01c-.92.4-.12.93.11 1.2l.03.03c.11.14.16.32.11.51-.08.3-.37.5-.68.45-.56-.14-.64.06-.72.56-.01.03-.01-.15-.02-.11v-.2c-.01 0-.01.24-.01.26-.16.62-.78 1.11-1.41.96-.24-.06-.44-.13-.59-.29v.03c-.02-.02-.04-.03-.05-.05-.34-.4-.6-.55-1.28-.31-.03.02-.13.03-.13.04 0 .03.18.03.07.01-.3-.07-.08-.36-.08-.66 0-.01-.35-.02-.35-.03.11-.7-.49-.84-.88-1.02-.01-.01-.11-.01-.12-.02-.01 0-.05 0-.06-.01-.43-.22-.69-1.09-.57-1.57.07-.28.22-1.03.45-1.03zm3.5-5.98c.65-.392 1.51-.18 1.9.48.39.655.18 1.507-.48 1.9-.66.394-1.51.18-1.9-.477-.4-.66-.18-1.51.47-1.91zm6.19-10.448l7.98 1.37-13.27 4.763 5.29-6.14zm-5.14 25.87c.65-.393 1.51-.18 1.9.478.39.657.18 1.51-.48 1.903s-1.51.18-1.91-.48c-.4-.66-.18-1.51.48-1.91zm.88-5.165c0-.22.21-.4.48-.4s.48.18.48.406c0 .22-.22.4-.48.4s-.48-.18-.48-.41zm.93 1.917c.2.537-.15 1.17-.78 1.415-.64.24-1.32.004-1.53-.534-.21-.53.14-1.17.78-1.41s1.32 0 1.52.54zm15.08-11.857l-13.98 5.174.54-2.268-2.44-6.96 1.79-.72 2.44 6.75 1.43-.54-2.44-6.81 1.79-.65 2.44 6.79 1.43-.52-2.44-6.8 1.79-.64 2.44 6.79 1.43-.51-2.44-6.8 1.79-.65 2.44 6.79L28.49 20zM26.99 4.047s-.045-1.1 5.52-1.1c5.565 0 5.516 1.1 5.516 1.1v3.06c-.92-.095-1.75-.25-2.21-.39-.683-.21-.96-.42-1.008-.46-.102-.13-.248-.19-.402-.19-.063 0-.343.01-.407.03-.23.074-.57.3-.57.534v4.42c0-.21-.69-.32-1.19-.32-.14.01-.17.02-.37.04-.18.04-.29.07-.45.13-.33.12-.62.28-.9.51-.56.45-1.03 1.16-1.05 1.99.67-.2 1.17-.23 1.64-.27l.69-.03.69-.01c.39.01.87.01 1.32.04.01 0 .01 0 .02.01 0 1.22.27 2.37.75 3.37-.66.32-1.35.5-2.11.5-3.06 0-5.51-2.89-5.51-6.46v-6.5zm18.39 2.59V13.1c0 3.57-2.464 6.464-5.517 6.464-3.055 0-5.518-2.893-5.518-6.463V6.64s.995 1.1 5.517 1.1 5.518-1.1 5.518-1.1zM29.54 54.06c.198-.788.997-1.266 1.784-1.068.787.198 1.265.996 1.067 1.783-.19.787-.99 1.264-1.78 1.068-.78-.198-1.26-.996-1.06-1.783zm-.593-30.26l-.798.7c-.06.046-.08.113-.06.18l.24.983c.03.157-.14.28-.28.2l-.89-.52c-.06-.032-.13-.032-.19 0l-.89.52c-.14.08-.31-.046-.27-.2l.24-.983c.01-.067-.01-.134-.06-.18l-.8-.7c-.12-.106-.06-.304.1-.318l1.06-.1c.06-.007.12-.05.15-.113l.37-.92c.06-.15.28-.15.34 0l.38.92c.03.06.08.1.15.11l1.05.1c.16.01.22.21.11.32zm3.397-4.548c.582.2.9.507 1.42.828.308.19.5.404.786.63.232.177.352.423.502.676.04.06.015.135-.012.197-.068.143-.164.286-.24.43-.012.02-.033.05-.054.062-.163.06-.317.17-.51.11-.027-.008-.062-.03-.09-.03-.396-.013-.684-.245-.957-.5-.42-.38-.86-.744-1.24-1.17-.2-.217-.33-.476-.44-.736-.08-.18-.19-.26-.36-.32-.3-.1-.6-.17-.91-.19-.16-.02-.32 0-.47.02-.11 0-.2.06-.26.14-.08.1-.15.2-.21.31-.03.05-.03.12-.02.18.02.09.06.19.11.27.11.17.24.33.35.5.02.02.04.04.07.06.41-.17.82-.1 1.23-.01.1.02.2.07.28.13.25.18.5.38.7.63.06.08.11.18.16.27.01.03.01.08 0 .12-.04.16-.1.31-.14.47-.06.19-.19.26-.37.28-.32.02-.62-.06-.88-.25-.37-.26-.67-.56-.97-.88l-.11-.1c-.01-.01-.02 0-.03-.01-.02.07.01.15.05.2.08.12.16.24.26.35.31.32.69.58 1.09.8l1.29.69c.14.08.28.16.42.23.12.05.24.09.37.13.07.03.13.06.2.1-.26.17-.51.23-.78.17-.07-.02-.15-.02-.22-.04-.08-.02-.17-.05-.25-.08-.06-.02-.13-.05-.19-.08-.28-.11-.55-.21-.81-.34-.28-.14-.54-.31-.8-.47-.13-.08-.23-.19-.33-.3-.21-.21-.4-.44-.56-.68-.15-.22-.17-.46-.13-.71.01-.07.05-.14.09-.2.04-.08.05-.15-.02-.22-.1-.12-.2-.25-.3-.36-.21-.25-.26-.6-.1-.9.16-.28.35-.54.61-.73.07-.04.15-.09.24-.12.21-.06.44-.07.67-.05.23.05.47.09.73.13.03-.08.05-.17.1-.25.06-.09.13-.18.2-.26.07-.07.14-.13.23-.2.06-.04.13-.07.19-.09.27-.08.55-.04.81.04.36.1.71.23 1.02.44.27.19.51.44.76.66.24.21.36.5.47.784.05.13.02.16-.11.17-.14-.19-.27-.38-.41-.56-.08-.096-.17-.17-.26-.25-.11-.1-.22-.21-.33-.315-.14-.13-.3-.24-.47-.31-.01-.008-.02-.008-.03-.016-.33-.22-.7-.28-1.08-.34-.14-.03.14-.05 0-.003-.21.053.11.15.11.353v.1c0 .18-.34.29-.16.35zm-16.927 7.57c.735-.28 1.524-.005 1.76.616.238.62-.166 1.354-.9 1.636-.737.28-1.525.005-1.763-.616-.238-.622.167-1.354.903-1.635zm13.357 11.16c-.147.872-1.08 1.46-1.96 1.31l-3.25-.538-.46 2.582c-.035.213-.253.36-.47.322l-7.937-1.335.004-.047c-.21-.035-.35-.28-.31-.545l1.28-7.6h.01c.15-.87.95-1.45 1.8-1.31l3.24.55.82-4.86c0-.02.02-.03.02-.05l.06-.34 8.93 1.47.14.39L28.8 38zm-5.208 10.3c.103.33-.08.68-.412.783-.33.102-.68-.082-.784-.412l-.478-1.534c-.103-.33.08-.68.412-.79.33-.1.68.08.785.41l.47 1.53zm.755-5.7c.33-.1.71.078.81.41l1.35 4.344c.1.33-.15.595-.38.715l-.61.35-1.58-5.03c-.1-.33.09-.68.42-.78zm.24 3.708l.48 1.534c.11.33-.08.682-.41.784-.33.105-.68-.08-.78-.41l-.47-1.535c-.1-.33.08-.68.41-.784.33-.1.68.08.79.41zm-3.11 15.068l-6.92-19.432c1.22-.313 2.49.336 2.92 1.543l5.29 14.85c.43 1.2-.15 2.51-1.29 3.04zm7.48-3.175l-5.13-2.668-.79-2.534s-.44-.09-.74-.34c-.31-.26-.5-.79-.5-.79l-2-6.42c-.1-.33.1-.67.43-.78.33-.1.68.08.79.41l1.42 4.59 1.57-.49s-.65.88-.65 2c0 .4.09.79.2 1.07l.3-.09c-.11-.32-.21-.84-.06-1.58.25-1.23 2.99-2.43 3.87-2.9l-.68-.35c-.3-.16-.41-.53-.25-.83.16-.3.54-.41.84-.25l1.7.91c.28.14.29.43-.09 2.19 0 .1-.62.76-.72.87l-1.54 1.46 2.09 6.57zm17.16-21.55c-1.63 9.4-5.99 15.716-10.86 15.716-1.37 0-2.45-.48-3.29-1.48-1.98-2.36-2.53-7.46-1.46-13.64 1.62-9.33 6.09-15.85 10.86-15.85 1.36 0 2.43.48 3.27 1.47 2.01 2.39 2.57 7.54 1.49 13.77zm.71-14.343l1.42-.94c.09-.06.15-.16.13-.27l-.16-1.58c-.03-.26.28-.42.48-.25l1.23 1.01c.09.07.2.085.3.04l1.57-.66c.24-.1.48.13.4.367l-.6 1.593c-.04.1-.02.21.05.294l1.08 1.21c.17.195.03.496-.23.486l-1.64-.06c-.1-.01-.2.04-.26.14l-.85 1.4c-.13.22-.46.16-.53-.08l-.4-1.57c-.03-.11-.11-.187-.21-.21l-1.66-.385c-.25-.06-.31-.39-.09-.53zm.55-7.68l1.43-.13c.09-.01.17-.06.21-.15l.51-1.24c.08-.2.38-.2.46 0l.52 1.24c.04.09.12.14.21.15l1.43.14c.21.02.3.29.15.43l-1.08.95c-.07.06-.1.15-.08.24l.32 1.326c.05.215-.18.38-.36.27l-1.19-.7c-.08-.043-.17-.043-.25 0l-1.19.7c-.19.11-.42-.06-.37-.27l.32-1.324c.02-.09-.01-.18-.08-.24l-1.08-.947c-.16-.142-.07-.41.14-.43zM53 27.17c.153-.05.276-.178.303-.34l.45-2.348c.07-.387.577-.49.792-.16l1.337 1.985c.093.137.25.21.41.192l2.545-.27c.38-.04.63.39.41.7L57.7 28.96c-.1.133-.12.3-.05.45l1.026 2.206c.163.355-.172.727-.54.6l-2.33-.8c-.152-.05-.316-.02-.437.09l-1.84 1.644c-.29.26-.75.04-.74-.348l.09-2.43c0-.167-.08-.314-.22-.397l-2.22-1.272c-.33-.193-.28-.69.09-.8l2.45-.742zm2.54-17.98c2.004-2.336 4.874-3.677 7.87-3.677.12 0 .24.003.358.007 2.684.094 5.296 1.266 7.165 3.216.4.417.778.884 1.125 1.388l.02-.026c-.19-.772.192-1.588 1.025-2.186.588-.423 1.134-.617 1.66-.804.654-.233 1.218-.434 1.648-1.037.08-.1.2-.15.32-.14.13.02.23.1.28.22.62 1.57.66 3.08.12 4.25-.37.81-1.01 1.38-1.75 1.59l-.03.06c-.51.9-1.01 1.73-1.59 2.62.02.41-.02.81-.1 1.18-.31 1.49-1.51 2.78-3.05 3.3-.6.78-1.17 1.48-1.7 2.09-1.98 2.26-2.68 2.39-2.91 2.44-.25.05-.5 0-.69-.13-.61-.42-.36-1.31-.26-1.65.16-.54.45-1.26.87-2.12.2-.41.43-.85.68-1.31-.21-.07-.42-.1-.64-.1-.73 0-1.24.44-1.36 1.17-.05.32-.02.64.02.97.03.33.07.66.02 1-.08.57-.28 1.14-.59 1.68-.8 1.44-2.15 2.27-3.69 2.27-.62 0-1.25-.13-1.88-.39-2.54-1.06-4.43-3.53-5.16-6.77-.06-.25-.1-.49-.14-.74-.45-2.95.43-5.98 2.43-8.3zm-2.36-1.35l.43-.623c.028-.044.032-.097.008-.142l-.373-.704c-.055-.1.043-.22.158-.19l.768.22c.05.02.11 0 .14-.04l.51-.54c.09-.09.24-.03.24.09l.02.75c.01.06.04.1.08.12l.72.36c.11.06.1.21-.01.26l-.74.28c-.05.02-.08.06-.09.11l-.09.76c-.02.12-.17.16-.24.07l-.48-.6c-.03-.04-.08-.06-.13-.05l-.76.13c-.12.02-.2-.11-.13-.21zm22.286 13.82l-1.08.403c-.068.026-.116.086-.126.16l-.14 1.087c-.023.174-.24.235-.35.098l-.695-.866c-.046-.056-.116-.083-.187-.07l-1.095.184c-.173.03-.293-.165-.196-.307l.62-.91c.042-.06.046-.14.01-.21l-.537-1.02c-.08-.16.062-.33.227-.29l1.112.3c.07.02.14 0 .19-.06l.73-.79c.12-.14.34-.05.34.13l.03 1.07c0 .07.04.14.11.17l1.03.51c.15.08.14.3-.01.37zm-9.095 4.115l-.37-.702c-.05-.106.05-.227.16-.195l.77.21c.05.015.1 0 .14-.036l.51-.545c.08-.09.24-.032.24.09l.02.746c.01.052.04.097.08.12l.72.35c.11.054.1.21-.01.254l-.74.278c-.05.018-.08.06-.09.11l-.09.752c-.01.12-.16.163-.24.068l-.48-.6c-.03-.037-.08-.056-.13-.048l-.75.128c-.12.02-.2-.113-.13-.212l.43-.625c.03-.042.03-.095.01-.14zm-5.26 3.55l-.66-1.253c-.09-.188.08-.403.28-.347l1.37.377c.09.024.18 0 .25-.068l.91-.968c.15-.16.42-.058.42.16l.04 1.326c.01.092.06.173.14.212l1.27.627c.19.1.18.37-.01.45l-1.32.5c-.08.04-.14.11-.15.2l-.17 1.34c-.03.22-.29.29-.43.13l-.85-1.06c-.05-.07-.14-.1-.23-.09l-1.35.23c-.21.04-.36-.2-.24-.37l.77-1.11c.05-.08.06-.17.02-.25zm-9.55 7.203c.04.167-.14.3-.28.21l-.93-.547c-.06-.03-.13-.03-.19 0l-.93.55c-.15.09-.32-.04-.28-.21l.26-1.04c.02-.07 0-.14-.06-.19l-.84-.74c-.12-.11-.05-.32.11-.33l1.12-.1c.07 0 .14-.05.16-.12l.4-.97c.06-.16.29-.16.36 0l.4.97c.03.07.09.12.16.12l1.12.11c.16.02.23.23.11.34l-.84.74c-.05.05-.07.12-.06.19l.25 1.04zM47.17 52.73l-.526.652c-.29.36-.816.416-1.176.126l-2.605-2.104c-.36-.29-.415-.818-.126-1.177l.52-.653c.29-.36.818-.417 1.177-.126l2.605 2.105c.36.29.41.817.12 1.177zm21.825-3.93l-5.163 1.48s-.982.193-.982.646v4.812c0 1.02-.375 1.962-1.642 2.142-1.267.18-2.017-.445-2.017-1.465s1.09-1.992 2.36-2.17c.86-.124 1.31.138 1.31.138v-5.638c0-.647.61-1.322 1.26-1.507l5.14-1.635c.65-.185.97.19.97.838v7.88c0 1.02-.79 1.97-2.05 2.13-1.27.16-2.17-.49-2.17-1.51s.85-1.97 2.12-2.12c.86-.1 1.18.18 1.18.18v-3.87c0-.48-.29-.31-.29-.31zm5.447-20.65l-2.696 3.498c-.126.154-.313.493-.513.493H71.2c-.186 0-.367-.31-.5-.44l-.138-.25-7.916 7.86.95.92c1.12 1.12 1.163 2.89.1 4.05l-.018.01c-.422.46-.913.83-1.46 1.11-.575.3-.94.89-.98 1.58-.103 1.82-.853 3.51-2.11 4.77-1.37 1.37-3.22 2.13-5.207 2.13-2.12 0-4.22-.88-5.76-2.43-2.98-3.01-3.18-7.84-.43-10.77 1.28-1.36 3.03-2.17 4.93-2.28.69-.04 1.29-.42 1.61-1.03.25-.46.57-.89.94-1.27.06-.06.12-.12.19-.17.54-.48 1.23-.75 1.96-.75.79 0 1.54.31 2.09.87l.95.95 7.91-7.91-.13-.13c-.14-.14-.21-.33-.2-.53.01-.2.11-.38.26-.51l3.27-2.7c.29-.23.7-.21.96.05l1.98 1.98c.26.26.28.67.05.96zm6.4-22.45c.316-1.368-.597-2.986-1.676-2.986H53.114l-.17.292c-.892.177-1.9 1.04-2.153 2.3 0 .02-.24 1.38-.63 3.586C46.58 3.457 41.15.652 34.2.652 16.39.65 3.903 18.75.772 36.62-1.3 48.706.857 59.958 6.546 66.707c3.71 4.4 8.827 6.73 14.8 6.73 7.536 0 15.014-4.093 21.384-11.622 1.686 7.268 7.557 11.752 15.903 11.752 7.708 0 16.102-5.26 18.487-9.978 1.373-2.52-.65-3.78-1.413-4.25-1.493-.93-4.6-3.02-2.356-15.77 1.49-8.54 7.29-36.87 7.5-37.87z"/>
      <path d="M68.64 39.47c.375-.078.775-.163 1.165-.232.125-.458.25-.915.366-1.357-.37.07-.77.15-1.16.24-.11.45-.24.92-.36 1.36M53.99 64.17c-.707.513-.864 1.503-.35 2.21.514.706 1.503.862 2.21.35.706-.515.864-1.504.35-2.21-.513-.708-1.503-.864-2.21-.35m-1.326-2.364c-.345 0-.627.28-.627.627s.282.628.627.628c.347 0 .627-.28.627-.62s-.28-.62-.62-.62M9.06 24.4l.01-.008.01-.01c.01-.005.016-.01.03-.02l.02-.017.02-.016c.013-.02.03-.03.05-.04l.03-.03.03-.03c.02-.02.04-.04.064-.05l.037-.03.02-.01.02-.01.08-.04c.03-.01.06-.03.09-.04l.09-.03.05-.01.04-.01H10c.03 0 .05-.01.06-.04.02-.03.01-.07-.03-.08l-.04-.02c0-.01-.01-.01-.02-.01l-.03-.01-.04-.02-.04-.01-.04-.01-.05-.01c-.02-.01-.03-.01-.05-.01h-.05c-.03 0-.07 0-.11.01-.02 0-.04 0-.06.01-.02 0-.04.01-.06.02l-.05.03c-.02 0-.04.01-.06.02l-.025.01-.025.02-.05.03c-.03.02-.06.05-.08.07l-.035.04-.03.04c-.014.02-.03.05-.04.07l-.012.03-.01.03-.01.04v.01c0 .01.007.03.01.04.02.03.06.05.097.03M55.86 59.6c-.83.27-1.29 1.166-1.02 1.997.27.83 1.162 1.285 1.992 1.015.83-.27 1.286-1.17 1.015-2-.27-.83-1.16-1.29-1.992-1.02M8.295 29.8l.013.015c.003.01.013.018.03.027l.02.01.02.01c.02 0 .03.01.05.01h.04l.04-.01.02-.02c.01-.02 0-.04-.01-.05H8.5l-.01-.01-.02-.01c-.01 0-.02-.01-.03-.01l-.014-.01H8.41l-.056-.03-.01-.006-.01-.005H8.29c-.02.01-.02.03-.01.05v.02m-1.8-4.05h.01l.01-.01c.01 0 .01-.01.02-.01s.02-.01.03-.01h.02c.01 0 .01 0 .01-.01s-.01-.03-.02-.03h-.05l-.03.01-.03.01c-.01.01-.02.01-.02.02l-.01.02v.02c0 .01.02.02.03.01"/>
    </g>
    <path fill="#252424" d="M103.678 10.813h-.184s.018 1.324-.35 2.557l-.68 2.17h2.3l-.682-2.152c-.367-1.25-.404-2.575-.404-2.575m5.703 9.713h-1.98c-.95 0-1.23-.203-1.38-.773l-.42-1.325h-3.97l-.42 1.325c-.18.57-.42.773-1.34.773h-1.93c-.57 0-.68-.258-.49-.755l4.23-11.66c.19-.53.43-.64.96-.64h2.1c.54 0 .78.13.96.61l4.25 11.7c.18.5.02.76-.53.76m13.96-12.29V9.9c0 .587-.2.79-.79.79h-4.21v9.07c0 .57-.18.772-.77.772h-2.08c-.58 0-.79-.203-.79-.774V8.236c0-.57.21-.77.79-.77h7.07c.59 0 .79.2.79.77m14.1 0v1.657c0 .588-.2.79-.79.79h-4.86v1.638h3.88c.59 0 .79.21.79.78v1.66c0 .59-.2.79-.79.79h-3.88v1.77h5.02c.57 0 .78.19.78.78v1.67c0 .57-.2.78-.77.78H129c-.59 0-.79-.2-.79-.77V8.24c0-.57.2-.77.79-.77h7.71c.588 0 .79.2.79.77m15.99 0v11.51c0 .57-.202.775-.773.775h-2.1c-.57 0-.776-.203-.776-.774v-4.23h-3.57v4.23c0 .57-.18.78-.77.78h-2.08c-.59 0-.79-.2-.79-.77V8.24c0-.588.2-.79.79-.79h2.08c.59 0 .77.202.77.79v4.066h3.57v-4.07c0-.587.21-.79.78-.79h2.1c.57 0 .77.203.77.79m15.49 0v1.657c0 .588-.2.79-.79.79h-2.73v9.07c0 .57-.2.773-.79.773h-2.08c-.59 0-.77-.203-.77-.774v-9.068h-2.74c-.59 0-.77-.203-.77-.79V8.236c0-.57.19-.772.78-.772h9.11c.59 0 .79.202.79.772m10.18-1.046c2.84 0 4.6 1.158 5.37 3.218.19.534.06.81-.49.994l-1.97.698c-.57.166-.79.074-.99-.496-.33-.828-.88-1.196-1.91-1.196-1.46 0-2.03.626-2.03 1.913v3.35c0 1.29.58 1.92 2.03 1.92 1.03 0 1.62-.4 1.91-1.19.22-.57.44-.7.99-.49l1.97.7c.55.19.68.46.5 1-.77 2.06-2.54 3.22-5.37 3.22-3.62 0-5.67-1.97-5.67-5.15v-3.32c0-3.18 2.04-5.15 5.67-5.15m20.59 1.05V9.9c0 .588-.2.79-.79.79h-2.73v9.07c0 .57-.2.773-.79.773h-2.08c-.59 0-.77-.205-.77-.776V10.69h-2.74c-.58 0-.77-.204-.77-.79V8.24c0-.57.19-.77.77-.77h9.11c.59 0 .79.2.79.77m10.59 7.157h-2.13v2.152h2.14c.79 0 1.18-.32 1.18-1.09 0-.74-.38-1.07-1.18-1.07M210 10.4h-1.79v2.02h1.787c.737 0 1.12-.27 1.12-.99s-.383-1.03-1.12-1.03m4.82.54c0 1.23-.385 2.06-1.323 2.7v.07c1.18.52 1.86 1.56 1.86 3.16 0 2.37-1.93 3.64-4.52 3.64h-5.47c-.59 0-.79-.21-.79-.78V8.23c0-.584.2-.79.79-.79h5.39c2.54 0 4.06 1.25 4.06 3.5m10.948-.534c-1.29 0-2.02.6-2.02 1.76v3.64c0 1.16.73 1.764 2.02 1.764 1.27 0 2.01-.605 2.01-1.765v-3.64c0-1.16-.74-1.766-2.01-1.766m0-3.22c3.63 0 5.65 1.97 5.65 5.15v3.31c0 3.19-2.02 5.15-5.65 5.15-3.64 0-5.66-1.97-5.66-5.15v-3.31c0-3.18 2.02-5.15 5.66-5.15M108.7 42.6h-1.987c-.975 0-1.324-.13-1.637-.774l-1.6-3.293c-.294-.59-.553-.92-1.252-.92h-.33v4.21c0 .57-.185.775-.773.775h-2.07c-.59 0-.79-.203-.79-.773V30.31c0-.57.21-.772.8-.772h2.08c.59 0 .78.202.78.772v4.084h.41l2.65-4.17c.35-.57.52-.68 1.48-.68h2.11c.55 0 .74.33.44.81l-3.34 5.34c.46.33.81.79 1.12 1.416l2.43 4.598c.26.498.13.903-.47.903M125 30.32l-4.85 11.61c-.24.57-.46.68-1.27.68h-2.34c-.534 0-.61-.29-.387-.77l1.38-3.09-3.9-8.42c-.24-.51-.13-.77.44-.77h2.17c.86 0 1.16.04 1.413.68l1.786 4.09 1.69-4.08c.24-.62.46-.68 1.283-.68h2.19c.536 0 .61.26.39.77m15.05 0v11.51c0 .57-.2.78-.79.78h-2.08c-.59 0-.77-.2-.77-.77v-9.07h-2.21v1.73c0 5.35-1.66 7.154-3.846 8.24-.52.275-.78.147-1.05-.37l-1.05-1.88c-.28-.51-.15-.77.36-1.062 1.1-.642 1.99-1.45 1.99-4.91v-4.2c0-.57.2-.77.79-.77h7.85c.58 0 .79.2.79.77m12.28 7.704c0-.81-.52-1.343-1.38-1.343h-1.82v2.7h1.82c.86 0 1.38-.55 1.38-1.36m-6.85 3.81V30.31c0-.57.2-.772.79-.772h2.08c.59 0 .77.202.77.772v3.146h2.26c2.85 0 4.71 1.637 4.71 4.544 0 2.925-1.88 4.6-4.75 4.6h-5.08c-.59 0-.79-.204-.79-.774M169.8 30.31v1.656c0 .588-.206.79-.79.79h-2.726v9.07c0 .57-.2.773-.79.773h-2.08c-.59 0-.77-.21-.77-.78v-9.07h-2.74c-.59 0-.77-.21-.77-.79v-1.65c0-.57.187-.78.77-.78h9.1c.587 0 .79.2.79.77m15.8 0l-4.857 11.6c-.24.57-.46.68-1.27.68h-2.34c-.535 0-.608-.3-.388-.78l1.38-3.09-3.9-8.43c-.24-.52-.13-.78.44-.78h2.17c.86 0 1.16.03 1.41.68l1.78 4.08 1.69-4.09c.24-.63.46-.68 1.29-.68h2.19c.53 0 .6.26.38.77m11.68 3.81c0-.81-.51-1.36-1.38-1.36h-1.82v2.7h1.82c.87 0 1.38-.54 1.38-1.34m3.77.02c0 2.9-1.85 4.54-4.71 4.54h-2.26v3.15c0 .57-.18.77-.77.77h-2.08c-.59 0-.79-.2-.79-.77V30.3c0-.57.2-.772.79-.772h5.08c2.87 0 4.75 1.675 4.75 4.6m15.75-3.82v11.51c0 .57-.2.776-.77.776h-2.09c-.57 0-.77-.21-.77-.78v-4.23h-3.57v4.23c0 .57-.19.77-.77.77h-2.08c-.59 0-.79-.206-.79-.777V30.3c0-.59.2-.79.79-.79h2.08c.58 0 .77.2.77.79v4.065h3.57V30.3c0-.59.2-.79.77-.79h2.09c.57 0 .77.2.77.79m10.81 2.17c-1.29 0-2.03.607-2.03 1.765v3.645c0 1.16.73 1.766 2.02 1.766 1.27 0 2.01-.605 2.01-1.764V34.24c0-1.16-.74-1.766-2.01-1.766m0-3.22c3.62 0 5.65 1.97 5.65 5.15v3.31c0 3.182-2.02 5.15-5.65 5.15-3.65 0-5.67-1.97-5.67-5.153V34.4c0-3.18 2.02-5.15 5.66-5.15m16.45-.404c-1.82 0-3.13-.715-3.68-2.06-.15-.37-.04-.513.36-.68l1.38-.48c.44-.145.59-.09.8.24.25.425.61.627 1.14.627.53 0 .86-.21 1.14-.63.22-.33.31-.39.73-.26l1.47.5c.41.14.52.31.37.68-.55 1.34-1.86 2.06-3.72 2.06m5.48 1.45v11.52c0 .57-.21.77-.79.77h-2.07c-.59 0-.79-.2-.79-.79v-3.13c0-2.06.2-2.56.7-4.57h-.15c-.68 1.89-.94 2.443-1.73 3.79l-2.54 4.32c-.15.273-.35.365-.76.365h-2.23c-.59 0-.79-.2-.79-.77v-11.5c0-.57.21-.775.8-.775h2.08c.59 0 .77.205.77.776v3.14c0 2-.09 2.59-.68 4.54h.13c.74-1.86.97-2.48 1.77-3.83l2.5-4.29c.16-.26.35-.37.77-.37h2.21c.59 0 .79.2.79.79m-140.15 22.1v11.51c0 .57-.2.77-.79.77h-2.06c-.59 0-.79-.21-.79-.79v-3.13c0-2.06.2-2.56.7-4.57h-.15c-.68 1.89-.938 2.44-1.73 3.79L102 64.28c-.147.276-.35.37-.754.37h-2.23c-.59 0-.79-.205-.79-.776V52.37c0-.57.2-.772.79-.772h2.08c.58 0 .77.202.77.772v3.146c0 2.007-.09 2.595-.68 4.546h.13c.73-1.86.97-2.484 1.76-3.827l2.5-4.29c.16-.255.35-.366.77-.366h2.21c.59 0 .79.2.79.79m16.29 0v11.52c0 .57-.21.77-.78.77h-2.09c-.57 0-.78-.21-.78-.78v-4.23h-3.57v4.23c0 .57-.18.78-.77.78h-2.08c-.59 0-.79-.2-.79-.78V52.37c0-.586.2-.79.79-.79h2.08c.59 0 .77.204.77.79v4.068H122v-4.06c0-.59.2-.79.77-.79h2.09c.57 0 .77.2.77.79m14.7 3.46h-.39v4.503h.39c1.12 0 1.71-.53 1.71-1.61v-1.27c0-1.08-.59-1.62-1.71-1.62m-6.13 1.62v1.27c0 1.09.57 1.62 1.71 1.62h.38v-4.51h-.39c-1.14 0-1.71.54-1.71 1.62m5.74-5.53v.79h.55c3.42 0 5.26 1.8 5.26 4.89v1c0 3.08-1.84 4.88-5.26 4.88h-.56v.79c0 .59-.2.8-.79.8h-2.06c-.58 0-.79-.2-.79-.79v-.79h-.55c-3.44 0-5.26-1.8-5.26-4.87v-1c0-3.09 1.82-4.89 5.26-4.89h.55v-.79c0-.57.2-.77.79-.77h2.06c.59 0 .79.2.79.77m16.19 2.63c-1.284 0-2.02.61-2.02 1.77V60c0 1.16.73 1.77 2.02 1.77 1.27 0 2.004-.6 2.004-1.76v-3.65c0-1.16-.74-1.76-2.01-1.76m0-3.22c3.62 0 5.65 1.97 5.65 5.15v3.31c0 3.19-2.03 5.15-5.65 5.15-3.64 0-5.67-1.97-5.67-5.15V56.5c0-3.18 2.02-5.15 5.664-5.15m17.65 4.85c0-.81-.515-1.36-1.38-1.36h-1.82v2.7h1.82c.865 0 1.38-.53 1.38-1.34m3.77.02c0 2.908-1.86 4.545-4.71 4.545h-2.26v3.14c0 .57-.185.77-.773.77h-2.08c-.59 0-.79-.2-.79-.77V52.38c0-.57.2-.773.79-.773h5.08c2.87 0 4.75 1.676 4.75 4.6m18.23-3.842v11.55c0 .57-.2.754-.79.754h-2c-.59 0-.778-.19-.778-.76v-2.63c0-1.22.11-2.38.81-4.82h-.2c-.18.6-.847 2.28-1.23 3.03l-1.03 2.08c-.2.36-.39.53-.88.53h-1.23c-.5 0-.68-.13-.89-.53l-1.08-2.08c-.39-.7-.96-2.39-1.14-3.04h-.19c.667 2.65.76 3.57.76 4.84v2.61c0 .57-.21.75-.79.75h-1.88c-.59 0-.79-.18-.79-.75V52.36c0-.59.2-.774.79-.774H185c.644 0 .83.11 1.085.57l3.034 5.96 3.03-5.94c.25-.498.42-.59 1.03-.59h1.84c.58 0 .79.184.79.773m11.06 2.59h-.18s.02 1.32-.35 2.56l-.68 2.17h2.3l-.68-2.16c-.37-1.25-.41-2.58-.41-2.58m5.7 9.71h-1.99c-.96 0-1.23-.21-1.38-.78l-.42-1.33h-3.98l-.42 1.32c-.19.57-.43.77-1.35.77h-1.93c-.57 0-.68-.26-.5-.76l4.23-11.66c.18-.54.42-.65.96-.65h2.09c.53 0 .77.13.96.6l4.25 11.7c.18.5.01.76-.54.76m17.57-2.47v4.51c0 .59-.21.79-.79.79h-1.9c-.59 0-.78-.2-.78-.79v-2.04h-8c-.59 0-.79-.21-.79-.78v-11.5c0-.57.2-.77.79-.77h2.08c.59 0 .77.2.77.77v9.07h3.42v-9.07c0-.57.2-.77.79-.77h2.08c.59 0 .77.2.77.77v9.07h.75c.59 0 .79.18.79.75m16-9.83v11.52c0 .57-.2.77-.79.77h-2.06c-.59 0-.79-.21-.79-.8V60.7c0-2.06.2-2.553.7-4.56h-.15c-.68 1.897-.93 2.448-1.72 3.79l-2.54 4.325c-.15.28-.35.37-.76.37h-2.23c-.59 0-.79-.2-.79-.773v-11.5c0-.57.2-.77.79-.77h2.08c.59 0 .77.2.77.77V55.5c0 2.008-.09 2.596-.68 4.547h.13c.74-1.86.98-2.488 1.77-3.83l2.5-4.288c.16-.25.35-.36.77-.36h2.21c.59 0 .79.2.79.79m16.56 0v11.51c0 .57-.2.77-.79.77h-2.06c-.59 0-.79-.21-.79-.79v-3.12c0-2.06.2-2.56.7-4.56h-.15c-.68 1.89-.94 2.44-1.73 3.79l-2.51 4.32c-.15.27-.35.37-.76.37h-2.23c-.59 0-.79-.2-.79-.77v-11.5c0-.57.2-.77.79-.77h2.08c.58 0 .77.2.77.77v3.14c0 2-.09 2.59-.68 4.54h.13c.73-1.86.97-2.49 1.76-3.83l2.5-4.29c.17-.26.35-.37.77-.37h2.2c.59 0 .79.2.79.79"/>
  </g>
</svg>
